<?xml version="1.0" encoding="UTF-8"?>
<svg id="Layer_3" xmlns="http://www.w3.org/2000/svg" version="1.1" viewBox="0 0 600 600">
  <!-- Generator: Adobe Illustrator 29.3.1, SVG Export Plug-In . SVG Version: 2.1.0 Build 151)  -->
  <path d="M537.78,300.02c0,131.31-106.45,237.76-237.76,237.76S62.26,431.34,62.26,300.02,168.71,62.26,300.02,62.26s237.76,106.45,237.76,237.76ZM517.88,300.02c0-120.32-97.54-217.86-217.86-217.86s-217.86,97.54-217.86,217.86,97.54,217.86,217.86,217.86,217.86-97.54,217.86-217.86Z"/>
  <path d="M228.52,169.92c45.36-4.22,96.34,2.57,142.27-.14,31.52,3.02,56.3,27.84,59.52,59.33-2.75,45.96,3.73,96.33,0,141.78-2.52,30.72-28.69,56.91-59.43,59.43-45.45,3.73-95.81-2.75-141.78,0-31.8-3.25-56.64-28.4-59.43-60.24,2.14-45.41-2.88-93.46-.05-138.55,2-31.99,26.71-58.6,58.89-61.6ZM230.98,192.86c-20.37,2.07-36.39,18.47-38.25,38.8-3.96,43.28,2.74,92.09-.09,135.95,2.01,22.01,18.48,38.17,40.53,39.8,43.38,3.2,90.66-2.45,134.44-.04,22.01-2.01,38.17-18.48,39.8-40.53,3.2-43.38-2.45-90.66-.04-134.44-1.81-21.46-18.27-38-39.75-39.75-43.86,3.01-93.43-4.17-136.63.23Z"/>
  <path d="M365.28,300.01c0,36.05-29.22,65.27-65.27,65.27s-65.27-29.22-65.27-65.27,29.22-65.27,65.27-65.27,65.27,29.22,65.27,65.27ZM342.13,300c0-23.27-18.86-42.13-42.13-42.13s-42.13,18.86-42.13,42.13,18.86,42.13,42.13,42.13,42.13-18.86,42.13-42.13Z"/>
  <circle cx="369.21" cy="230.36" r="16.42"/>
</svg>